<svg width="145" height="34" fill="none" xmlns="http://www.w3.org/2000/svg"><path d="M7.524 25.256L2.692 8.072a128.89 128.89 0 01-.608-1.984c-.17-.597-.256-1.088-.256-1.472-.341.021-.65.043-.928.064-.277 0-.544.01-.8.032L.196 2.6h8.8l-.128 1.76c-.939 0-1.579.192-1.92.576-.341.384-.395 1.11-.16 2.176l1.728 7.36c.17.81.341 1.579.512 2.304.17.704.352 1.557.544 2.56h.064c.085-.32.224-.747.416-1.28.192-.555.384-1.141.576-1.76.213-.619.405-1.173.576-1.664.17-.512.298-.885.384-1.12l3.968-10.944h2.208l3.104 11.872c.213.81.405 1.643.576 2.496.192.832.373 1.675.544 2.528h.064c.235-.661.48-1.355.736-2.08a93.52 93.52 0 00.768-2.272c.32-.896.608-1.707.864-2.432.256-.725.48-1.387.672-1.984a87.3 87.3 0 00.576-1.728c.192-.555.384-1.099.576-1.632.15-.47.33-.95.544-1.44.235-.512.501-.95.8-1.312-.384.021-.822.043-1.312.064-.49.021-.886.043-1.184.064l.096-2.112h6.976l-.096 1.76a4.57 4.57 0 00-1.152.256 2.9 2.9 0 00-.96.608c-.277.277-.555.661-.832 1.152-.277.49-.555 1.11-.832 1.856l-6.304 17.024h-2.144l-3.328-11.84a27.935 27.935 0 01-.64-2.56c-.15-.768-.288-1.493-.416-2.176h-.064a59.251 59.251 0 01-.608 2.08 24.493 24.493 0 01-.704 2.112L9.572 25.256H7.524zm34.524-22.72c1.941-.021 3.584.224 4.928.736 1.366.49 2.39 1.248 3.072 2.272.704 1.024 1.003 2.336.896 3.936-.043.832-.256 1.675-.64 2.528s-.97 1.632-1.76 2.336c-.768.704-1.77 1.28-3.008 1.728-1.237.448-2.72.693-4.448.736h-1.024c-.32 0-.63-.01-.928-.032l-.192 3.424a17.519 17.519 0 01-.128 1.632c-.043.49-.085.875-.128 1.152.277-.021.587-.032.928-.032a16.44 16.44 0 011.024-.032c.341-.021.619-.032.832-.032L41.376 25h-8.864l.096-1.76c.598-.021 1.056-.117 1.376-.288.341-.192.587-.512.736-.96.17-.47.267-1.11.288-1.92l.672-12.768c.043-.533.086-1.045.128-1.536.064-.49.117-.875.16-1.152-.363.021-.779.043-1.248.064-.47 0-.853.01-1.152.032l.128-2.112a270.48 270.48 0 014.16-.032c1.387 0 2.784-.01 4.192-.032zm-.16 1.92c-.512 0-.938.085-1.28.256-.32.15-.554.437-.704.864-.15.427-.245 1.013-.288 1.76l-.384 7.392c.299.043.576.075.832.096h.832c1.173 0 2.187-.203 3.04-.608a4.693 4.693 0 001.984-1.824c.47-.81.736-1.792.8-2.944.043-1.045-.075-1.899-.352-2.56-.256-.661-.63-1.163-1.12-1.504a3.926 3.926 0 00-1.6-.736 8.088 8.088 0 00-1.76-.192zm14.446 20.896c-1.045 0-1.909-.267-2.592-.8-.682-.555-1.194-1.29-1.536-2.208-.32-.917-.48-1.952-.48-3.104 0-2.048.32-3.861.96-5.44.662-1.6 1.664-2.859 3.008-3.776 1.344-.917 3.03-1.376 5.056-1.376.214 0 .491.01.832.032.342 0 .608.021.8.064.086-.917.16-1.696.224-2.336.086-.64.15-1.184.192-1.632.064-.448.128-.8.192-1.056-.362.021-.768.043-1.216.064-.426 0-.778.01-1.056.032l.128-2.048c.982 0 1.782-.043 2.4-.128.619-.107 1.099-.235 1.44-.384.363-.15.619-.288.768-.416h1.472c-.192 1.515-.394 3.125-.608 4.832-.192 1.685-.405 3.52-.64 5.504a218.235 218.235 0 01-.48 4.16c-.149 1.344-.277 2.56-.384 3.648a35.36 35.36 0 00-.128 2.656c0 .405.043.704.128.896a.517.517 0 00.48.288c.278 0 .566-.192.864-.576.32-.405.63-1.12.928-2.144l1.472.416a9.234 9.234 0 01-.448 1.472 7.016 7.016 0 01-.8 1.6 4.571 4.571 0 01-1.28 1.28c-.49.32-1.077.48-1.76.48-.746 0-1.354-.224-1.824-.672-.469-.448-.704-1.195-.704-2.24 0-.49.022-.928.064-1.312.043-.384.107-.832.192-1.344h-.064c-.533 1.493-1.12 2.645-1.76 3.456-.64.81-1.29 1.365-1.952 1.664-.661.299-1.29.448-1.888.448zm1.024-2.432c.576 0 1.12-.31 1.632-.928.512-.619.982-1.45 1.408-2.496a19.186 19.186 0 001.024-3.488c.171-.768.31-1.59.416-2.464.107-.875.214-1.813.32-2.816-.213-.085-.512-.15-.896-.192a6.034 6.034 0 00-.96-.096c-.789 0-1.461.203-2.016.608-.554.384-1.013.907-1.376 1.568a10.43 10.43 0 00-.832 2.112 17.42 17.42 0 00-.416 2.304 23.83 23.83 0 00-.096 2.016c0 1.216.15 2.165.448 2.848.299.683.747 1.024 1.344 1.024zM77.664 8.648c.874 0 1.664.139 2.368.416.725.256 1.29.672 1.696 1.248.405.576.608 1.323.608 2.24 0 .875-.278 1.621-.832 2.24-.534.619-1.248 1.13-2.144 1.536-.875.384-1.824.704-2.848.96a22.553 22.553 0 01-2.976.544c0 1.259.138 2.261.416 3.008.277.725.65 1.248 1.12 1.568a3.02 3.02 0 001.6.448c.448 0 .939-.085 1.472-.256.554-.192 1.099-.533 1.632-1.024.533-.49 1.002-1.173 1.408-2.048l1.536.768c-.597 1.301-1.259 2.325-1.984 3.072-.726.725-1.493 1.237-2.304 1.536a7.255 7.255 0 01-2.528.448c-1.984.021-3.52-.565-4.608-1.76-1.088-1.195-1.632-2.923-1.632-5.184 0-1.11.16-2.23.48-3.36.32-1.152.8-2.208 1.44-3.168a7.914 7.914 0 012.496-2.336c1.002-.597 2.197-.896 3.584-.896zm-.384 1.76c-.81 0-1.472.288-1.984.864-.512.555-.907 1.27-1.184 2.144a13.602 13.602 0 00-.512 2.656c1.152-.192 2.123-.47 2.912-.832.79-.384 1.397-.832 1.824-1.344.427-.512.64-1.077.64-1.696-.022-.576-.192-1.013-.512-1.312a1.61 1.61 0 00-1.184-.48zm12.79 14.944c-.982 0-1.888-.139-2.72-.416-.832-.299-1.515-.715-2.048-1.248a2.785 2.785 0 01-.768-1.952c0-.597.17-1.077.512-1.44a1.74 1.74 0 011.312-.576c.533 0 .949.181 1.248.544.32.341.48.747.48 1.216 0 .15-.022.31-.064.48-.022.17-.075.341-.16.512.128.299.426.555.896.768.49.213.938.32 1.344.32 1.002 0 1.728-.224 2.176-.672.448-.448.672-1.003.672-1.664 0-.47-.171-.875-.512-1.216a6.09 6.09 0 00-1.312-1.024 39.478 39.478 0 00-1.696-1.024 26.551 26.551 0 01-2.272-1.472c-.619-.47-1.088-.96-1.408-1.472-.32-.533-.48-1.152-.48-1.856 0-.768.234-1.493.704-2.176.469-.683 1.141-1.237 2.016-1.664.874-.448 1.93-.672 3.168-.672.832 0 1.642.139 2.432.416.789.256 1.44.64 1.952 1.152.512.512.768 1.12.768 1.824 0 .512-.16.96-.48 1.344-.32.363-.758.544-1.312.544-.512 0-.928-.17-1.248-.512a1.786 1.786 0 01-.448-1.216c0-.17.01-.33.032-.48.042-.15.106-.299.192-.448-.15-.277-.416-.49-.8-.64a3.167 3.167 0 00-1.216-.224c-.342 0-.704.085-1.088.256a2.42 2.42 0 00-.928.672 1.453 1.453 0 00-.384 1.024c0 .341.085.64.256.896.17.256.469.533.896.832a27 27 0 001.728 1.088 52.34 52.34 0 012.208 1.376 7.305 7.305 0 011.92 1.664c.512.619.768 1.387.768 2.304 0 .939-.278 1.77-.832 2.496-.534.725-1.28 1.301-2.24 1.728-.96.405-2.048.608-3.264.608zm12.525-16.704c1.046 0 1.782.33 2.208.992.448.64.672 1.504.672 2.592 0 .555-.053 1.259-.16 2.112a87.71 87.71 0 01-.384 2.72c-.128.96-.256 1.867-.384 2.72-.106.832-.16 1.515-.16 2.048 0 .363.064.619.192.768.128.15.288.224.48.224.278 0 .576-.192.896-.576.32-.405.63-1.12.928-2.144l1.44.416c-.085.448-.245.95-.48 1.504a7.57 7.57 0 01-.928 1.6c-.362.49-.81.907-1.344 1.248-.533.32-1.141.48-1.824.48-1.109 0-1.888-.299-2.336-.896-.448-.597-.672-1.44-.672-2.528 0-.725.054-1.515.16-2.368.128-.875.267-1.75.416-2.624.15-.896.278-1.75.384-2.56.107-.81.16-1.536.16-2.176 0-.341-.053-.597-.16-.768a.527.527 0 00-.48-.256c-.256 0-.544.203-.864.608-.32.384-.629 1.088-.928 2.112l-1.44-.416c.064-.427.214-.917.448-1.472a7.596 7.596 0 01.928-1.6 5.207 5.207 0 011.408-1.248c.534-.341 1.142-.512 1.824-.512zm1.376-7.68c.619 0 1.131.224 1.536.672.406.448.587 1.013.544 1.696 0 .661-.213 1.216-.64 1.664-.426.448-.96.672-1.6.672-.64 0-1.162-.224-1.568-.672-.384-.448-.576-1.003-.576-1.664.043-.683.288-1.248.736-1.696.448-.448.971-.672 1.568-.672zm10.27 32.704a9.29 9.29 0 01-1.888-.192 5.234 5.234 0 01-1.6-.544 3.156 3.156 0 01-1.12-.992c-.278-.384-.427-.843-.448-1.376 0-.299.074-.619.224-.96a2.12 2.12 0 01.64-.8c.277-.213.64-.32 1.088-.32.512 0 .938.16 1.28.48.362.32.544.768.544 1.344 0 .32-.064.63-.192.928.128.192.373.341.736.448.384.128.725.192 1.024.192.96 0 1.717-.267 2.272-.8.554-.533.97-1.259 1.248-2.176a18.7 18.7 0 00.64-3.008c.149-1.173.288-2.25.416-3.232a35.87 35.87 0 01.544-2.88h-.032c-.427 1.13-.864 2.07-1.312 2.816-.448.725-.918 1.29-1.408 1.696-.47.384-.95.65-1.44.8-.47.17-.95.256-1.44.256-.854 0-1.611-.224-2.272-.672-.662-.47-1.184-1.141-1.568-2.016-.363-.896-.544-1.984-.544-3.264 0-1.45.17-2.816.512-4.096.362-1.301.917-2.443 1.664-3.424a8.106 8.106 0 012.912-2.368c1.194-.576 2.592-.864 4.192-.864.64 0 1.386.053 2.24.16a15.94 15.94 0 012.4.48l-.224 3.296c-.086 1.259-.182 2.57-.288 3.936a218.394 218.394 0 01-.288 4 167.446 167.446 0 01-.32 3.488c-.171 2.027-.566 3.755-1.184 5.184-.619 1.45-1.504 2.56-2.656 3.328-1.152.768-2.603 1.152-4.352 1.152zm.864-10.72c.512 0 .992-.256 1.44-.768.469-.512.896-1.205 1.28-2.08s.714-1.845.992-2.912c.298-1.088.544-2.187.736-3.296.192-1.13.32-2.197.384-3.2a4.32 4.32 0 00-.768-.16 4.42 4.42 0 00-.928-.096c-.875 0-1.622.224-2.24.672-.619.448-1.12 1.088-1.504 1.92-.363.81-.64 1.75-.832 2.816a22.09 22.09 0 00-.256 3.488c0 .704.064 1.333.192 1.888.128.533.32.96.576 1.28.256.299.565.448.928.448zm24.849 2.4c-1.13 0-1.898-.299-2.304-.896-.384-.619-.576-1.461-.576-2.528 0-.64.043-1.355.128-2.144.086-.81.182-1.643.288-2.496.128-.875.235-1.707.32-2.496.086-.81.128-1.525.128-2.144 0-.299-.032-.565-.096-.8a.973.973 0 00-.352-.544c-.149-.128-.362-.192-.64-.192-.469 0-.938.256-1.408.768-.469.49-.928 1.163-1.376 2.016-.426.832-.81 1.76-1.152 2.784a25.736 25.736 0 00-.832 3.168 17.183 17.183 0 00-.288 3.04c0 .299.011.661.032 1.088.022.427.043.768.064 1.024h-3.648a35.324 35.324 0 00-.096-.736v-.576c0-.405.022-.885.064-1.44a770.903 770.903 0 01.512-4.48c.107-.81.192-1.515.256-2.112.086-.597.15-1.11.192-1.536.064-.448.107-.821.128-1.12.022-.32.032-.587.032-.8 0-.363-.053-.619-.16-.768a.433.433 0 00-.416-.256c-.277 0-.576.203-.896.608-.32.384-.618 1.088-.896 2.112l-1.472-.416c.086-.427.224-.917.416-1.472a7.028 7.028 0 01.8-1.6 4.363 4.363 0 011.248-1.248c.491-.341 1.078-.512 1.76-.512.555 0 1.024.128 1.408.384.406.235.704.597.896 1.088.214.47.31 1.077.288 1.824-.021.47-.064.885-.128 1.248-.042.363-.096.736-.16 1.12h.064c.576-1.515 1.184-2.677 1.824-3.488.64-.832 1.291-1.397 1.952-1.696.662-.32 1.312-.48 1.952-.48.896 0 1.611.203 2.144.608.555.384.96.928 1.216 1.632.256.704.384 1.515.384 2.432 0 .896-.074 1.867-.224 2.912a111.19 111.19 0 01-.416 3.008c-.149.96-.224 1.813-.224 2.56 0 .341.054.597.16.768.107.17.256.256.448.256.278 0 .576-.192.896-.576.32-.405.619-1.12.896-2.144l1.472.416a7.731 7.731 0 01-.48 1.472 7.57 7.57 0 01-.928 1.6 5.225 5.225 0 01-1.376 1.28c-.533.32-1.141.48-1.824.48z" fill="#000"/></svg>